<svg xmlns="http://www.w3.org/2000/svg" width="18" height="18" fill="#fff">
  <path fill="#fff" d="M14.198 4.231a12.368 12.368 0 0 0-3.053-.947.046.046 0 0 0-.05.023c-.131.235-.277.54-.38.781a11.42 11.42 0 0 0-3.429 0 7.905 7.905 0 0 0-.386-.78.048.048 0 0 0-.049-.024 12.335 12.335 0 0 0-3.053.947.044.044 0 0 0-.02.017c-1.945 2.905-2.477 5.74-2.216 8.538a.052.052 0 0 0 .02.035 12.438 12.438 0 0 0 3.745 1.893c.02.006.04 0 .053-.017.288-.394.545-.81.766-1.246a.048.048 0 0 0-.026-.066 8.182 8.182 0 0 1-1.17-.558.048.048 0 0 1-.005-.08c.079-.059.157-.12.232-.182a.046.046 0 0 1 .049-.006c2.455 1.12 5.113 1.12 7.538 0a.046.046 0 0 1 .05.006c.075.061.153.123.232.182a.048.048 0 0 1-.004.08 7.682 7.682 0 0 1-1.17.557.048.048 0 0 0-.026.067c.225.436.483.851.766 1.246a.048.048 0 0 0 .052.017 12.396 12.396 0 0 0 3.752-1.893.049.049 0 0 0 .02-.034c.312-3.236-.524-6.047-2.218-8.538a.038.038 0 0 0-.02-.018m-7.685 6.85c-.74 0-1.349-.678-1.349-1.511 0-.833.598-1.512 1.349-1.512.756 0 1.36.685 1.348 1.512 0 .833-.598 1.512-1.348 1.512m4.984 0c-.74 0-1.348-.678-1.348-1.511 0-.833.597-1.512 1.348-1.512.757 0 1.36.685 1.348 1.512 0 .833-.591 1.512-1.348 1.512"></path>
</svg>