<svg width="16" height="16" viewBox="0 0 16 16" fill="none" xmlns="http://www.w3.org/2000/svg">
<path d="M12.7622 3.70277C12.7622 3.12449 12.2732 2.66676 11.6962 2.70495L10.7655 2.76653C10.24 2.80131 9.83157 3.2377 9.83157 3.76435V5.35557C9.83157 5.70036 10.0092 6.02083 10.3016 6.20357L10.7407 6.47802C11.0331 6.66076 11.2107 6.98123 11.2107 7.32602V8.7396C11.2107 9.11837 10.9967 9.46463 10.6579 9.63402L10.3844 9.7708C10.0456 9.94019 9.83157 10.2865 9.83157 10.6652V12.2219C9.83157 12.7542 10.2486 13.1932 10.7802 13.2206L11.7108 13.2685C12.2825 13.2979 12.7622 12.8423 12.7622 12.2698V3.70277Z" fill="#0090FF"/>
<path d="M3.10834 12.2698C3.10834 12.8423 3.58802 13.2979 4.15974 13.2685L5.09038 13.2206C5.62198 13.1932 6.03898 12.7542 6.03898 12.2219V10.6652C6.03898 10.2865 5.82497 9.94019 5.48619 9.7708L5.21264 9.63402C4.87385 9.46463 4.65985 9.11837 4.65985 8.7396V7.32602C4.65985 6.98123 4.83747 6.66076 5.12985 6.47802L5.56897 6.20357C5.86136 6.02083 6.03898 5.70036 6.03898 5.35557V3.76435C6.03898 3.2377 5.63051 2.80131 5.10501 2.76653L4.17437 2.70495C3.59736 2.66676 3.10834 3.12449 3.10834 3.70276V12.2698Z" fill="#0090FF"/>
<path d="M5.66253 6.65286C5.36132 6.83358 5.17702 7.15909 5.17702 7.51035V8.36397C5.17702 8.75734 5.57432 9.02632 5.93955 8.88023C6.00523 8.85396 6.07532 8.84046 6.14606 8.84046H9.72449C9.79522 8.84046 9.86531 8.85396 9.93099 8.88023C10.2962 9.02632 10.6935 8.75734 10.6935 8.36397V7.51035C10.6935 7.15909 10.5092 6.83358 10.208 6.65286L10.0691 6.5695C9.91366 6.47625 9.73583 6.42699 9.55458 6.42699H6.31596C6.13472 6.42699 5.95688 6.47625 5.80146 6.5695L5.66253 6.65286Z" fill="#0090FF"/>
</svg>
