<svg width="564" height="147" viewBox="0 0 564 147" fill="none" xmlns="http://www.w3.org/2000/svg">
  <path
    d="M0 3.20282C0 1.46885 1.46571 0.0959524 3.19598 0.209224L37.7467 2.47109C39.3241 2.57435 40.5508 3.8839 40.5508 5.46468V43.1618C40.5508 44.2014 40.0126 45.1668 39.1284 45.7135L22.8904 55.7531C22.0062 56.2998 21.468 57.2653 21.468 58.3048V90.1648C21.468 91.3058 22.1153 92.348 23.138 92.8539L38.8808 100.641C39.9035 101.147 40.5508 102.189 40.5508 103.33V141.385C40.5508 142.982 39.2988 144.3 37.7033 144.381L3.15256 146.14C1.438 146.228 0 144.861 0 143.144V3.20282Z"
    fill="#0090FF" />
  <path
    d="M133.579 143.144C133.579 144.861 132.141 146.228 130.426 146.14L95.8756 144.381C94.2801 144.3 93.0282 142.982 93.0282 141.385V103.33C93.0282 102.189 93.6754 101.147 94.6981 100.641L110.441 92.8539C111.464 92.348 112.111 91.3058 112.111 90.1648V58.3048C112.111 57.2653 111.573 56.2998 110.689 55.7531L94.4505 45.7135C93.5663 45.1668 93.0282 44.2014 93.0282 43.1618V5.46468C93.0282 3.8839 94.2548 2.57435 95.8322 2.47109L130.383 0.209224C132.113 0.0959523 133.579 1.46885 133.579 3.20282L133.579 143.144Z"
    fill="#0090FF" />
  <path
    d="M103.486 58.1205C104.397 58.6609 104.955 59.6414 104.955 60.7002V85.2548C104.955 87.3724 102.82 88.8235 100.851 88.0443L93.56 85.1593C93.2086 85.0202 92.8341 84.9488 92.4562 84.9488H41.1227C40.7448 84.9488 40.3703 85.0202 40.0189 85.1593L32.7279 88.0443C30.7588 88.8235 28.6241 87.3724 28.6241 85.2548V60.7002C28.6241 59.6414 29.1823 58.6609 30.0928 58.1205L39.8428 52.3334C40.3062 52.0583 40.8351 51.9132 41.374 51.9132H92.2049C92.7438 51.9132 93.2727 52.0583 93.7361 52.3334L103.486 58.1205Z"
    fill="#0090FF" />
  <path d="M166.797 31.9371V0.706787H290.82V31.9371H247.899V143.474H209.717V31.9371H166.797Z"
    fill="white" />
  <path d="M315.232 31.9371V0.706787H439.255V31.9371H396.334V143.474H358.152V31.9371H315.232Z"
    fill="white" />
  <path d="M467.569 143.474V0.706787H506.308V112.243H564V143.474H467.569Z" fill="white" />
</svg>