<svg width="293" height="325" viewBox="0 0 293 325" fill="none" xmlns="http://www.w3.org/2000/svg">
  <path
    d="M0 3.20548C0 1.47052 1.46731 0.0972829 3.19847 0.212059L86.1449 5.71143C87.7212 5.81595 88.9464 7.12505 88.9464 8.70486V97.9357C88.9464 98.9692 88.4145 99.9299 87.5386 100.478L48.4971 124.925C47.6212 125.473 47.0893 126.434 47.0893 127.468V202.583C47.0893 203.718 47.7304 204.757 48.7456 205.265L87.2901 224.573C88.3053 225.082 88.9464 226.12 88.9464 227.256V317.564C88.9464 319.161 87.6956 320.478 86.1009 320.56L3.15449 324.837C1.43923 324.926 0 323.559 0 321.841V3.20548Z"
    fill="#0090FF" />
  <path
    d="M293 321.841C293 323.559 291.561 324.926 289.845 324.837L206.899 320.56C205.304 320.478 204.054 319.161 204.054 317.564V227.256C204.054 226.12 204.695 225.082 205.71 224.573L244.254 205.265C245.27 204.757 245.911 203.718 245.911 202.583V127.468C245.911 126.434 245.379 125.473 244.503 124.925L205.461 100.478C204.585 99.9299 204.054 98.9692 204.054 97.9357V8.70486C204.054 7.12505 205.279 5.81595 206.855 5.71143L289.801 0.21206C291.533 0.0972834 293 1.47053 293 3.20549L293 321.841Z"
    fill="#0090FF" />
  <path
    d="M228.76 130.174C229.662 130.717 230.214 131.692 230.214 132.745V194.759C230.214 196.883 228.069 198.334 226.098 197.544L204.591 188.925C204.236 188.783 203.857 188.71 203.475 188.71H89.5252C89.1429 188.71 88.7641 188.783 88.4092 188.925L66.9017 197.544C64.9308 198.334 62.7857 196.883 62.7857 194.759V132.745C62.7857 131.692 63.3377 130.717 64.2401 130.174L88.2331 115.751C88.6998 115.471 89.2341 115.323 89.7787 115.323H203.221C203.766 115.323 204.3 115.471 204.767 115.751L228.76 130.174Z"
    fill="#0090FF" />
</svg>