<svg width="28" height="31" viewBox="0 0 28 31" fill="currentColor"
  xmlns="http://www.w3.org/2000/svg">
  <path
    d="M0 1.06836C0 0.490093 0.489023 0.0323618 1.06603 0.0705462L7.56603 0.500693C8.09153 0.535469 8.5 0.971859 8.5 1.49851V8.94575C8.5 9.29054 8.32238 9.61101 8.03 9.79375L4.97 11.7062C4.67762 11.889 4.5 12.2095 4.5 12.5542V18.882C4.5 19.2607 4.714 19.607 5.05279 19.7764L7.94721 21.2236C8.286 21.393 8.5 21.7393 8.5 22.118V29.6126C8.5 30.145 8.08301 30.584 7.5514 30.6113L1.0514 30.9459C0.479684 30.9753 0 30.5197 0 29.9472V1.06836Z"
    fill="currentColor" />
  <path
    d="M28 29.9472C28 30.5197 27.5203 30.9753 26.9486 30.9459L20.4486 30.6113C19.917 30.584 19.5 30.145 19.5 29.6126V22.118C19.5 21.7393 19.714 21.393 20.0528 21.2236L22.9472 19.7764C23.286 19.607 23.5 19.2607 23.5 18.882V12.5542C23.5 12.2095 23.3224 11.889 23.03 11.7062L19.97 9.79375C19.6776 9.61101 19.5 9.29054 19.5 8.94575V1.49851C19.5 0.971859 19.9085 0.535469 20.434 0.500693L26.934 0.0705463C27.511 0.0323619 28 0.490093 28 1.06836L28 29.9472Z"
    fill="currentColor" />
  <path
    d="M21.5145 12.2087C21.8157 12.3894 22 12.7149 22 13.0662V17.523C22 18.2304 21.2855 18.7142 20.6286 18.4514L19.6788 18.0715C19.5607 18.0243 19.4346 18 19.3074 18H8.69258C8.56536 18 8.43931 18.0243 8.32119 18.0715L7.37139 18.4514C6.71453 18.7142 6 18.2304 6 17.523V13.0662C6 12.7149 6.1843 12.3894 6.4855 12.2087L8.26249 11.1425C8.4179 11.0493 8.59574 11 8.77698 11H19.223C19.4043 11 19.5821 11.0493 19.7375 11.1425L21.5145 12.2087Z"
    fill="currentColor" />
</svg>